<svg width="28" height="28" viewBox="0 0 28 28" fill="none" xmlns="http://www.w3.org/2000/svg">
<path d="M13.6463 10.4645L13.9999 10.8181L14.3534 10.4645L23.4089 1.409L23.0559 1.05603L23.4089 1.40899C24.2875 0.530336 25.7122 0.530336 26.5908 1.40899C27.4695 2.28768 27.4695 3.7123 26.5908 4.591C26.5908 4.591 26.5908 4.59101 26.5908 4.59101L17.5354 13.6464L17.1818 14L17.5354 14.3536L26.5908 23.409C27.4695 24.2876 27.4695 25.7124 26.5908 26.591C25.7122 27.4696 24.2875 27.4696 23.4089 26.591L14.3534 17.5355L13.9999 17.1819L13.6463 17.5355L4.59089 26.591C3.71219 27.4696 2.28756 27.4696 1.40887 26.591C0.530214 25.7124 0.530214 24.2877 1.40887 23.409L1.05591 23.0561L1.40888 23.409L10.4644 14.3536L10.8179 14L10.4644 13.6464L1.40888 4.591C1.40888 4.591 1.40888 4.591 1.40888 4.591C0.53021 3.7123 0.530211 2.28769 1.40888 1.409C2.28757 0.530333 3.71218 0.530332 4.59088 1.409C4.59088 1.409 4.59088 1.409 4.59088 1.40901L13.6463 10.4645Z" fill="white" stroke="white"/>
</svg>
